<?xml version="1.0" encoding="UTF-8"?>
<svg id="Capa_2" data-name="Capa 2" xmlns="http://www.w3.org/2000/svg" viewBox="0 0 364.58 382.27">
  <defs>
    <style>
      .cls-1 {
        fill: #f64444;
      }

      .cls-2 {
        fill: #e0ecf4;
      }

      .cls-3 {
        fill: #e23e3d;
      }

      .cls-4 {
        fill: #d2e4ed;
      }

      .cls-5 {
        fill: #fad053;
      }
    </style>
  </defs>
  <g id="Capa_1-2" data-name="Capa 1">
    <g id="Vx0Z7M.tif">
      <g>
        <path class="cls-3" d="M260.64,293.99l-57.45,57.03c-20.69,19.39-48.2,29.94-76.27,31.14-34.45,1.47-67.12-11.49-91.1-35.33l46.17-46.42c1.11-1.11,2.05-1.65,2.54-3.11,19.5,19.81,51.38,20.87,72.22,2.32l7.5-7.44,9.02-8.93,9-8.99c2.46-2.46,4.94-4.66,7.28-7.21l3.35-3.64c2.97-2.41,5.37-5.21,8.06-7.88l10.37-10.28c.7.11,1.09.48,1.82,1.21l47.49,47.55Z"/>
        <path class="cls-1" d="M88.69,121.42c.43.95.86,1.45,1.6,2.19l47.14,46.96-53.63,53.91c-19.7,20.62-18.91,52.86.73,72.82-.49,1.47-1.43,2-2.54,3.11l-46.17,46.42c-46.05-45.79-48.24-121.24-3.39-168.91l56.26-56.49Z"/>
        <path class="cls-4" d="M260.64,293.99l-47.49-47.55c-.73-.73-1.12-1.1-1.82-1.21l40.67-40.52c6.46-4.66,14.93-3.87,20.29,2.01l27.67,27.69c4.91,5.34,5.14,12.47,1.43,18.87l-40.76,40.71Z"/>
        <path class="cls-2" d="M137.42,170.57l-47.14-46.96c-.74-.74-1.17-1.24-1.6-2.19l40.1-39.89c4.82-4.8,13.95-4.16,18.53.42l29.42,29.41c6.24,6.23,4.5,15.5-1.28,21.27l-38.04,37.96Z"/>
        <g>
          <path class="cls-5" d="M206.81,102.59c-.63,1.04-1.64.94-2.3.86s-1.43-.98-1.22-2.07l7.46-38.39c.24-1.24.05-2.27-.71-3.01-.67-.65-1.6-.88-2.8-.96l-13.09-.87c-1.62-.11-2.77-1.72-3.15-2.72-.6-1.59.11-3.25,1.03-4.75L222.77.27c.55-.41,1.67-.26,2.09-.13.55.16,1.14.95.95,1.98l-6.69,36.36c-.35,1.88.64,4.05,2.58,4.07l14.41.15c1.37.01,2.53,1.37,3.01,2.19.75,1.29.61,2.93-.26,4.38l-32.05,53.33Z"/>
          <g>
            <path class="cls-5" d="M347.02,89.81l-86.96,52.34c-1.41.85-3.2-.12-3.74-1.05-.75-1.31-.73-2.4.38-3.76l39.13-48.08c1.05-1.29,1.54-2.45,1.29-3.99-.15-.97-.93-2.47-2.12-3.23l-18.72-11.79c-2.99-1.88-4.07-8.04-.47-10.17l82.87-49.29c1.25-.74,2.61-.16,3.4.45.65.5,1.58,2.12.79,3.13l-11.43,14.57-26.71,33.51c-2.17,2.73,0,6.12,2.48,7.38l15.56,7.9c2.36,1.2,4.64,1.99,5.44,4.54.58,1.84,1.48,5.93-1.19,7.54Z"/>
            <path class="cls-5" d="M297.98,189.36c-1.55.33-2.27-.34-2.39-1.23-.15-1.11.5-1.31,1.43-1.89l25.19-15.64c1.29-.8.65-2.18.13-2.89-2.1-2.9-4.2-5.38-6.46-8.06-.82-.98-.67-2.55-.34-3.52.37-1.09,1.5-1.65,2.92-1.94l42.96-8.85c1-.21,1.72-.51,2.41.02.45.35,1.2,1.65.36,2.19l-24.35,15.53c-.75.48-1.34,1-1.46,1.58-.18.9.22,1.51.8,2.13l6.73,7.23c.83.89,1.2,2.34.91,3.32-.39,1.28-1.39,2.07-2.91,2.39l-45.93,9.66Z"/>
          </g>
        </g>
      </g>
    </g>
  </g>
</svg>